HIERARCHY
ROOT Hips
{
	OFFSET 0.000000 0.794594 0.001814
	CHANNELS 6 Xposition Yposition Zposition Zrotation Xrotation Yrotation
	JOINT Spine
	{
		OFFSET -0.000000 0.051920 0.010783
		CHANNELS 3 Zrotation Xrotation Yrotation
		JOINT Chest
		{
			OFFSET 0.000000 0.111800 0.002643
			CHANNELS 3 Zrotation Xrotation Yrotation
			JOINT UpperChest
			{
				OFFSET 0.000011 0.124994 0.000757
				CHANNELS 3 Zrotation Xrotation Yrotation
				JOINT Neck
				{
					OFFSET 0.000112 0.117645 -0.020286
					CHANNELS 3 Zrotation Xrotation Yrotation
					JOINT Head
					{
						OFFSET 0.000009 0.074358 -0.000161
						CHANNELS 3 Zrotation Xrotation Yrotation
						JOINT LeftEye
						{
							OFFSET 0.019846 0.051735 0.040589
							CHANNELS 3 Zrotation Xrotation Yrotation
							End Site
							{
								OFFSET -0.000199 0.054090 0.042333
							}
						}
						JOINT RightEye
						{
							OFFSET -0.020226 0.051740 0.040395
							CHANNELS 3 Zrotation Xrotation Yrotation
							End Site
							{
								OFFSET -0.000199 0.054090 0.042333
							}
						}
					}
				}
				JOINT LeftShoulder
				{
					OFFSET 0.022481 0.089795 -0.017340
					CHANNELS 3 Zrotation Xrotation Yrotation
					JOINT LeftUpperArm
					{
						OFFSET 0.087730 -0.000010 0.000425
						CHANNELS 3 Zrotation Xrotation Yrotation
						JOINT LeftLowerArm
						{
							OFFSET 0.210364 0.001461 0.000713
							CHANNELS 3 Zrotation Xrotation Yrotation
							JOINT LeftHand
							{
								OFFSET 0.205444 0.001377 0.000711
								CHANNELS 3 Zrotation Xrotation Yrotation
								JOINT LeftIndexProximal
								{
									OFFSET 0.064499 0.001525 0.020305
									CHANNELS 3 Zrotation Xrotation Yrotation
									JOINT LeftIndexIntermediate
									{
										OFFSET 0.033222 0.000012 0.000212
										CHANNELS 3 Zrotation Xrotation Yrotation
										JOINT LeftIndexDistal
										{
											OFFSET 0.020455 0.000007 0.000130
											CHANNELS 3 Zrotation Xrotation Yrotation
											End Site
											{
												OFFSET 0.020455 0.000007 0.000130
											}
										}
									}
								}
								JOINT LeftLittleProximal
								{
									OFFSET 0.062854 -0.001936 -0.027845
									CHANNELS 3 Zrotation Xrotation Yrotation
									JOINT LeftLittleIntermediate
									{
										OFFSET 0.031399 0.000011 0.000200
										CHANNELS 3 Zrotation Xrotation Yrotation
										JOINT LeftLittleDistal
										{
											OFFSET 0.018096 0.000006 0.000115
											CHANNELS 3 Zrotation Xrotation Yrotation
											End Site
											{
												OFFSET 0.018096 0.000006 0.000115
											}
										}
									}
								}
								JOINT LeftMiddleProximal
								{
									OFFSET 0.066609 0.003801 0.003549
									CHANNELS 3 Zrotation Xrotation Yrotation
									JOINT LeftMiddleIntermediate
									{
										OFFSET 0.037005 0.000013 0.000236
										CHANNELS 3 Zrotation Xrotation Yrotation
										JOINT LeftMiddleDistal
										{
											OFFSET 0.022829 0.000008 0.000145
											CHANNELS 3 Zrotation Xrotation Yrotation
											End Site
											{
												OFFSET 0.022829 0.000008 0.000145
											}
										}
									}
								}
								JOINT LeftRingProximal
								{
									OFFSET 0.066900 0.003343 -0.012193
									CHANNELS 3 Zrotation Xrotation Yrotation
									JOINT LeftRingIntermediate
									{
										OFFSET 0.034327 0.000012 0.000219
										CHANNELS 3 Zrotation Xrotation Yrotation
										JOINT LeftRingDistal
										{
											OFFSET 0.019811 0.000007 0.000126
											CHANNELS 3 Zrotation Xrotation Yrotation
											End Site
											{
												OFFSET 0.019811 0.000007 0.000126
											}
										}
									}
								}
								JOINT LeftThumbProximal
								{
									OFFSET 0.001848 -0.006641 0.017858
									CHANNELS 3 Zrotation Xrotation Yrotation
									JOINT LeftThumbIntermediate
									{
										OFFSET 0.030326 -0.003605 0.035110
										CHANNELS 3 Zrotation Xrotation Yrotation
										JOINT LeftThumbDistal
										{
											OFFSET 0.019149 -0.004135 0.020870
											CHANNELS 3 Zrotation Xrotation Yrotation
											End Site
											{
												OFFSET 0.019149 -0.004134 0.020871
											}
										}
									}
								}
							}
						}
					}
				}
				JOINT RightShoulder
				{
					OFFSET -0.022291 0.089803 -0.017557
					CHANNELS 3 Zrotation Xrotation Yrotation
					JOINT RightUpperArm
					{
						OFFSET -0.087729 0.000010 -0.000425
						CHANNELS 3 Zrotation Xrotation Yrotation
						JOINT RightLowerArm
						{
							OFFSET -0.210401 0.000107 -0.000861
							CHANNELS 3 Zrotation Xrotation Yrotation
							JOINT RightHand
							{
								OFFSET -0.205447 0.000040 -0.000840
								CHANNELS 3 Zrotation Xrotation Yrotation
								JOINT RightIndexProximal
								{
									OFFSET -0.064690 0.001511 0.019688
									CHANNELS 3 Zrotation Xrotation Yrotation
									JOINT RightIndexIntermediate
									{
										OFFSET -0.033222 0.000005 -0.000106
										CHANNELS 3 Zrotation Xrotation Yrotation
										JOINT RightIndexDistal
										{
											OFFSET -0.020455 0.000003 -0.000065
											CHANNELS 3 Zrotation Xrotation Yrotation
											End Site
											{
												OFFSET -0.020455 0.000003 -0.000065
											}
										}
									}
								}
								JOINT RightLittleProximal
								{
									OFFSET -0.062585 -0.001949 -0.028444
									CHANNELS 3 Zrotation Xrotation Yrotation
									JOINT RightLittleIntermediate
									{
										OFFSET -0.031399 0.000005 -0.000100
										CHANNELS 3 Zrotation Xrotation Yrotation
										JOINT RightLittleDistal
										{
											OFFSET -0.018096 0.000003 -0.000057
											CHANNELS 3 Zrotation Xrotation Yrotation
											End Site
											{
												OFFSET -0.018096 0.000003 -0.000057
											}
										}
									}
								}
								JOINT RightMiddleProximal
								{
									OFFSET -0.066640 0.003787 0.002913
									CHANNELS 3 Zrotation Xrotation Yrotation
									JOINT RightMiddleIntermediate
									{
										OFFSET -0.037006 0.000005 -0.000118
										CHANNELS 3 Zrotation Xrotation Yrotation
										JOINT RightMiddleDistal
										{
											OFFSET -0.022829 0.000003 -0.000072
											CHANNELS 3 Zrotation Xrotation Yrotation
											End Site
											{
												OFFSET -0.022829 0.000003 -0.000072
											}
										}
									}
								}
								JOINT RightRingProximal
								{
									OFFSET -0.066782 0.003329 -0.012831
									CHANNELS 3 Zrotation Xrotation Yrotation
									JOINT RightRingIntermediate
									{
										OFFSET -0.034327 0.000005 -0.000109
										CHANNELS 3 Zrotation Xrotation Yrotation
										JOINT RightRingDistal
										{
											OFFSET -0.019810 0.000003 -0.000063
											CHANNELS 3 Zrotation Xrotation Yrotation
											End Site
											{
												OFFSET -0.019810 0.000003 -0.000063
											}
										}
									}
								}
								JOINT RightThumbProximal
								{
									OFFSET -0.002017 -0.006641 0.017839
									CHANNELS 3 Zrotation Xrotation Yrotation
									JOINT RightThumbIntermediate
									{
										OFFSET -0.032510 -0.005699 0.032803
										CHANNELS 3 Zrotation Xrotation Yrotation
										JOINT RightThumbDistal
										{
											OFFSET -0.020784 -0.005081 0.019013
											CHANNELS 3 Zrotation Xrotation Yrotation
											End Site
											{
												OFFSET -0.020784 -0.005081 0.019013
											}
										}
									}
								}
							}
						}
					}
				}
			}
		}
	}
	JOINT LeftUpperLeg
	{
		OFFSET 0.077122 -0.039594 -0.005714
		CHANNELS 3 Zrotation Xrotation Yrotation
		JOINT LeftLowerLeg
		{
			OFFSET 0.000000 -0.343087 0.003694
			CHANNELS 3 Zrotation Xrotation Yrotation
			JOINT LeftFoot
			{
				OFFSET 0.000000 -0.401029 -0.031329
				CHANNELS 3 Zrotation Xrotation Yrotation
				JOINT LeftToes
				{
					OFFSET 0.000000 -0.001594 0.127952
					CHANNELS 3 Zrotation Xrotation Yrotation
					End Site
					{
						OFFSET -0.000000 -0.001594 0.127952
					}
				}
			}
		}
	}
	JOINT RightUpperLeg
	{
		OFFSET -0.077122 -0.039594 -0.005714
		CHANNELS 3 Zrotation Xrotation Yrotation
		JOINT RightLowerLeg
		{
			OFFSET -0.000000 -0.343087 0.003695
			CHANNELS 3 Zrotation Xrotation Yrotation
			JOINT RightFoot
			{
				OFFSET 0.000000 -0.401029 -0.031326
				CHANNELS 3 Zrotation Xrotation Yrotation
				JOINT RightToes
				{
					OFFSET 0.000000 -0.001593 0.127952
					CHANNELS 3 Zrotation Xrotation Yrotation
					End Site
					{
						OFFSET -0.000000 -0.001593 0.127952
					}
				}
			}
		}
	}
}
MOTION
Frames: 4
Frame Time: 0.016667
0.000000 0.794594 0.001814 -0.000000 0.000000 -0.000000 0.000000 -0.000000 0.000000 0.000000 0.000000 0.000000 -0.000000 -0.000000 -0.000000 -0.000000 -0.000000 -0.000000 -0.000000 0.000001 -0.000000 0.000000 -0.000001 -0.000000 -0.000000 -0.000003 -0.000000 -0.000000 -0.000000 -0.000000 -0.000000 0.000003 0.000000 0.000000 -0.000001 -0.000000 0.000000 0.000002 -0.000000 0.000000 0.000000 -0.000000 0.000000 0.000000 -0.000000 0.000000 0.000000 -0.000000 0.000000 0.000000 -0.000000 0.000000 -0.000000 -0.000000 0.000000 0.000000 -0.000000 0.000000 0.000000 -0.000000 0.000000 0.000000 -0.000000 0.000000 0.000000 -0.000000 0.000000 0.000000 -0.000000 0.000000 -0.000000 -0.000000 0.000000 0.000000 -0.000000 -0.000001 0.000001 0.000000 -0.000004 -0.000003 0.000000 -0.000002 -0.000002 -0.000001 -0.000000 -0.000001 -0.000000 -0.000000 -0.000000 0.000000 0.000000 0.000000 0.000000 -0.000000 0.000000 0.000000 0.000000 0.000000 -0.000000 0.000000 0.000000 0.000000 0.000000 0.000000 0.000000 0.000000 0.000000 -0.000000 0.000000 -0.000000 0.000000 0.000000 -0.000000 0.000000 0.000000 0.000000 -0.000000 0.000000 -0.000000 0.000000 -0.000000 -0.000000 0.000000 0.000000 -0.000000 0.000000 0.000000 0.000000 -0.000000 0.000000 0.000000 0.000000 -0.000000 -0.000001 0.000005 -0.000000 0.000000 -0.000000 0.000001 -0.000001 0.000004 0.000000 -0.000000 0.000000 -0.000000 -0.000000 0.000000 0.000000 -0.000000 -0.000000 -0.000000 -0.000000 0.000000 -0.000000 0.000000 0.000000 -0.000000 -0.000000 0.000000 -0.000000 -0.000000 -0.000000 -0.000000 -0.000000 -0.000000 
-0.002301 0.791762 0.015186 -1.414388 -0.044969 -7.709754 -1.599501 0.878731 -0.284296 3.590966 -3.844948 -0.042297 -0.103852 -3.584396 0.067444 -4.959674 -2.622585 -1.608979 -10.284589 8.906869 5.498217 0.000066 0.000020 0.000018 0.000065 0.000016 0.000018 -4.923508 -0.059646 -0.687545 -24.003820 57.180544 -49.866405 5.586143 1.668800 -71.252083 -13.078030 -4.927985 -8.623700 -14.449345 -2.316586 4.063882 -26.368319 -0.480763 -4.658169 -26.368724 -0.480753 -4.658118 -16.783069 4.100125 -12.826002 -26.484567 0.375484 -3.716015 -26.485493 0.375525 -3.715980 -17.976079 -0.600455 -0.881714 -26.485001 0.375578 -3.716191 -26.485382 0.375580 -3.716163 -17.665372 1.095756 -5.108573 -26.485102 0.375630 -3.716207 -26.485431 0.375577 -3.716156 10.247506 -6.352286 19.141532 -9.602620 4.581053 19.616032 -7.502194 3.546065 16.061676 3.472169 -0.061159 0.504263 36.718083 61.156933 44.955550 -1.095474 -0.352794 30.502993 4.537291 30.182924 10.259060 31.942336 -2.884156 0.497898 31.579052 -0.318602 5.576509 31.579766 -0.318565 5.576502 31.118369 4.156787 9.335079 31.713367 0.652164 4.407461 31.713992 0.652162 4.407448 31.915179 -1.334971 1.655300 31.713607 0.652211 4.407652 31.713941 0.652218 4.407633 31.713630 0.651992 4.407370 31.713654 0.652202 4.407663 31.713948 0.652177 4.407674 -6.913634 -4.802223 -13.871383 4.856160 1.366880 -23.927809 3.634765 0.788366 -19.580694 0.519989 -6.798986 -6.647640 0.004409 17.485320 0.025515 -4.568701 -7.981926 2.026605 0.000000 -0.000000 -0.000000 1.988266 -0.381807 26.147460 -0.003157 12.815276 -0.018048 6.126467 -5.007358 -2.386014 -0.000000 -0.000000 -0.000002 
-0.002173 0.791051 0.015664 -1.397718 0.067688 -7.686561 -1.605589 0.865954 -0.275491 3.587337 -3.849074 -0.036801 -0.103538 -3.572568 0.074573 -4.960475 -2.622874 -1.606219 -10.269742 8.681525 5.571269 0.002478 -0.000021 0.007377 0.001723 -0.000021 0.005105 -4.923535 -0.059656 -0.687559 -23.994875 57.191759 -49.826285 5.574284 1.665233 -71.199005 -16.408319 11.710684 -10.742535 -14.691141 -2.288792 4.002970 -26.346266 -0.482521 -4.647900 -26.368659 -0.481592 -4.648667 -17.726873 4.288603 -12.677556 -27.089830 0.414760 -3.702376 -27.091003 0.414807 -3.702336 -18.427878 -0.582731 -0.880512 -26.476924 0.374172 -3.706779 -26.485225 0.374722 -3.706699 -18.452799 1.155666 -5.058834 -26.714429 0.389966 -3.705208 -26.715675 0.389998 -3.705143 10.337101 -6.283641 19.712013 -9.680491 4.613069 19.857505 -7.683413 3.624629 16.631171 3.472176 -0.061157 0.504260 36.739386 61.113404 44.904177 -1.096176 -0.353433 30.526646 4.536095 30.193080 10.256705 31.942346 -2.884154 0.497878 31.579052 -0.318611 5.576495 31.579742 -0.318574 5.576508 31.118362 4.156770 9.335065 31.713381 0.652181 4.407460 31.713996 0.652136 4.407444 31.915159 -1.334956 1.655297 31.713583 0.652211 4.407663 31.713938 0.652222 4.407636 31.713620 0.651996 4.407373 31.713647 0.652198 4.407652 31.713951 0.652174 4.407684 -6.913649 -4.802210 -13.871378 4.856152 1.366868 -23.927807 3.634774 0.788377 -19.580696 0.464961 -6.954114 -6.694974 0.027567 17.799637 0.025968 -4.552905 -8.250662 2.029497 0.000001 0.000000 -0.000001 2.108718 -0.766760 26.073269 -0.002076 13.440362 -0.019305 6.130230 -5.327916 -2.292903 0.000000 0.000000 -0.000000 
-0.001843 0.788996 0.016960 -1.334341 0.396109 -7.616633 -1.610184 0.841990 -0.259491 3.575206 -3.859794 -0.021639 -0.104226 -3.536841 0.094668 -4.961180 -2.623180 -1.603432 -10.194576 8.046818 5.692810 0.009386 -0.000025 0.028858 0.006482 -0.000041 0.019941 -4.923521 -0.059648 -0.687542 -23.969408 57.224985 -49.710882 5.540092 1.654732 -71.042416 -16.641927 10.567143 -11.137445 -14.923916 -2.164684 3.844643 -26.281683 -0.487600 -4.617910 -26.367413 -0.484015 -4.620944 -18.585215 4.400312 -12.382014 -27.623708 0.447062 -3.670732 -27.625069 0.447107 -3.670683 -18.837291 -0.546459 -0.867488 -26.453036 0.370115 -3.679267 -26.484245 0.372156 -3.679023 -19.155079 1.183827 -4.945104 -26.916507 0.400659 -3.676162 -26.918481 0.400727 -3.676100 10.382734 -6.205341 20.215176 -9.739349 4.645120 20.088642 -7.842824 3.698582 17.170633 3.472163 -0.061157 0.504270 36.801329 60.986643 44.755566 -1.098212 -0.355209 30.594299 4.533732 30.203909 10.254571 31.942353 -2.884155 0.497890 31.579052 -0.318614 5.576491 31.579745 -0.318567 5.576491 31.118362 4.156796 9.335068 31.713337 0.652177 4.407476 31.713989 0.652152 4.407456 31.915159 -1.334972 1.655291 31.713600 0.652229 4.407659 31.713924 0.652214 4.407651 31.713617 0.651979 4.407361 31.713654 0.652220 4.407656 31.713951 0.652163 4.407673 -6.913637 -4.802217 -13.871371 4.856147 1.366873 -23.927823 3.634767 0.788384 -19.580701 0.292864 -8.199832 -6.831638 0.002196 19.457049 0.025974 -4.511125 -8.989158 2.036654 -0.000000 -0.000000 0.000001 2.420599 -1.842888 25.860922 -0.002495 15.155131 -0.022715 6.141783 -6.209144 -2.028174 -0.000000 -0.000000 -0.000000 
